<svg width="903" height="903" xmlns="http://www.w3.org/2000/svg" xmlns:xlink="http://www.w3.org/1999/xlink" xml:space="preserve" overflow="hidden"><g transform="translate(-108 331)"><path d="M789.953 262.534C774.903 247.484 752.328 239.959 731.634 244.663L689.306 203.275C726.931 154.362 747.625 94.1625 747.625 32.0812 748.566-125.003 621.581-251.988 465.438-252.928 309.294-253.869 182.309-126.884 181.369 29.2594 180.428 185.403 307.413 312.388 463.556 313.328 525.638 313.328 586.778 292.634 636.631 255.009L678.019 296.397C674.256 318.031 680.841 339.666 695.891 355.656L813.469 473.234C838.866 498.631 881.194 498.631 906.591 473.234 931.987 447.838 931.987 405.509 906.591 380.112L789.953 262.534ZM465.438 256.891C340.334 256.891 239.688 156.244 239.688 31.1406 239.688-93.9625 340.334-194.609 465.438-194.609 590.541-194.609 691.188-93.9625 691.188 31.1406 691.188 155.303 589.6 256.891 465.438 256.891Z"/><path d="M667.672 17.0312 614.056 17.0312C609.353 17.9719 604.65 20.7938 601.828 24.5562L566.084 63.1219 535.984-41.2875C533.162-49.7531 523.756-55.3969 515.291-52.575 510.587-50.6938 505.884-47.8719 504.003-42.2281L447.566 107.331 409-99.6062C407.119-109.012 398.653-114.656 390.188-112.775 384.544-111.834 379.841-107.131 377.019-101.488L336.572 17.0312 263.203 17.0312 263.203 54.6562 348.8 54.6562C356.325 53.7156 362.909 48.0719 364.791 40.5469L388.306-30.9406 425.931 171.294C426.872 178.819 433.456 184.462 440.981 184.462L442.862 184.462C449.447 184.462 456.031 180.7 458.853 174.116L519.053 16.0906 543.509 100.747C546.331 109.212 554.797 114.856 564.203 112.034 567.025 111.094 569.847 109.212 571.728 107.331L622.522 54.6562 668.612 54.6562 668.612 17.0312Z"/></g></svg>