<svg width="806" height="806" xmlns="http://www.w3.org/2000/svg" xmlns:xlink="http://www.w3.org/1999/xlink" xml:space="preserve" overflow="hidden"><g transform="translate(-207 124)"><path d="M345.531 571.175C339.654 577.052 332.098 578.731 324.542 575.373 316.985 572.015 312.788 565.298 312.788 557.742 312.788 550.185 317.825 542.629 324.542 540.11 332.098 536.752 339.654 538.431 345.531 544.308 353.087 551.025 353.087 563.619 345.531 571.175ZM938.277 17.8896 870.271 85.8958 816.537 71.6229 803.104 18.7292 871.11-49.2771C830.81-64.3896 785.473-55.1542 753.569-26.6083 721.665 2.77708 709.071 46.4354 719.985 88.4146L291.798 516.602C276.685 530.875 270.808 552.704 275.846 572.854 280.883 593.004 296.835 608.956 316.985 613.994 337.135 619.031 358.125 613.154 373.237 598.042L801.425 169.854C843.404 180.769 887.062 168.175 916.448 136.271 944.994 104.367 954.229 58.1896 938.277 17.8896Z"/><path d="M934.919 516.602 718.306 299.99 630.99 387.306 840.885 597.202 848.442 604.758 849.281 603.919C873.629 621.55 907.212 618.192 928.202 597.202 949.192 575.373 951.71 541.79 934.919 516.602L934.919 516.602Z"/><path d="M396.746 42.2375 397.585 41.3979 375.756 1.09791 303.552-56.8333 274.167-27.4479 332.098 44.7562 372.398 66.5854 373.237 65.7458 533.598 226.106 557.106 202.598Z"/></g></svg>